<?xml version="1.0" encoding="UTF-8"?>
<svg version="1.1" xmlns="http://www.w3.org/2000/svg" width="1024" height="1024">
<path d="M0 0 C0.80999451 0.16298584 1.61998901 0.32597168 2.45452881 0.49389648 C6.58687424 1.08377423 10.56102628 1.1246255 14.72753906 1.09765625 C15.58351685 1.09619598 16.43949463 1.09473572 17.32141113 1.0932312 C19.17111035 1.08943905 21.02080598 1.0833372 22.87049103 1.07516479 C25.79515816 1.06237081 28.71977981 1.05587836 31.64447021 1.05102539 C37.84633397 1.03961784 44.04816002 1.02035667 50.25 1 C57.45061723 0.97642325 64.65121339 0.95604007 71.85186005 0.94406128 C74.7380405 0.93756212 77.62415607 0.92505764 80.51031494 0.91235352 C82.2702224 0.90872284 84.03013046 0.90537088 85.79003906 0.90234375 C86.59628723 0.89717743 87.4025354 0.89201111 88.23321533 0.88668823 C93.77231324 0.88615662 93.77231324 0.88615662 96 2 C96.33 1.34 96.66 0.68 97 0 C97.61608627 0.16298584 98.23217255 0.32597168 98.8669281 0.49389648 C103.29667427 1.20945941 107.6493165 1.12183374 112.12915039 1.09765625 C113.14804352 1.09619598 114.16693665 1.09473572 115.21670532 1.0932312 C117.43086798 1.08942685 119.6450276 1.08331201 121.85917854 1.07516479 C125.39159374 1.06234049 128.92397103 1.05586741 132.45640564 1.05102539 C141.25114881 1.03768236 150.0458571 1.01377753 158.84057617 0.98962402 C176.22730153 0.94267262 193.61333055 0.92479109 211 1 C212.29974888 1.00422974 212.29974888 1.00422974 213.62575531 1.00854492 C218.45909239 1.02642531 223.2887479 1.08772864 228.12109375 1.1875 C229.19198746 1.19322021 230.26288116 1.19894043 231.3662262 1.20483398 C235.78461903 1.33960781 238.99749814 1.52474049 242.55493164 4.30078125 C246.93938684 9.14097463 247.3038369 12.81812765 247.32226562 19.23754883 C247.33219543 20.06569595 247.34212524 20.89384308 247.35235596 21.74708557 C247.38153897 24.48376809 247.3951927 27.22021876 247.40625 29.95703125 C247.41775798 31.8626862 247.42927338 33.76834111 247.4407959 35.67399597 C247.46179876 39.66947506 247.4734952 43.66487388 247.48046875 47.66040039 C247.49143466 52.77183594 247.53948613 57.88220494 247.59641266 62.99330616 C247.63372328 66.93022224 247.64407958 70.86688287 247.6471405 74.8039608 C247.65318184 76.68780027 247.66919981 78.57163587 247.69551086 80.45530128 C247.72976009 83.095774 247.72584565 85.73366074 247.71289062 88.37426758 C247.73132019 89.14697998 247.74974976 89.91969238 247.76873779 90.71582031 C247.68697006 96.05619231 246.16998629 98.75359692 242.51631927 102.62322521 C237.2323339 107.42093369 230.15598766 108.71663721 223.25 109.1875 C221 109 221 109 219 107 C218.01 107 217.02 107 216 107 C214.33333333 107 212.66666667 107 211 107 C210.67 107.66 210.34 108.32 210 109 C204.8875461 109.09295371 200.043262 108.84691013 194.98046875 108.12109375 C192.78766058 107.86325956 192.78766058 107.86325956 190 109 C188.81608777 111.37625345 188.81608777 111.37625345 188 114 C187.67 114.99 187.34 115.98 187 117 C186.90612942 118.92633599 186.87265671 120.85581391 186.87136555 122.78443527 C186.86652888 124.60525214 186.86652888 124.60525214 186.8615945 126.46285319 C186.86306577 127.81693072 186.8646335 129.17100814 186.86628723 130.52508545 C186.86441997 131.9581169 186.86211961 133.39114785 186.85942191 134.82417798 C186.8532868 138.77163912 186.85343951 142.71907914 186.85461628 146.66654396 C186.85481986 150.92024693 186.84930558 155.17394303 186.84455872 159.42764282 C186.8362419 167.76556806 186.8335034 176.10348624 186.83294634 184.44141528 C186.8324716 191.21807803 186.83041898 197.99473844 186.82724571 204.77140045 C186.81843581 223.97567744 186.81382678 243.17994882 186.81457619 262.38422784 C186.81461614 263.42016703 186.8146561 264.45610622 186.81469727 265.5234375 C186.81475859 267.07923939 186.81475859 267.07923939 186.81482115 268.66647163 C186.81522756 285.47453036 186.80565997 302.28256669 186.7915589 319.09061894 C186.77720123 336.34038861 186.7702884 353.59014735 186.77115268 370.83992314 C186.77148489 380.52775979 186.76872726 390.21557296 186.75797462 399.90340424 C186.74887757 408.15265235 186.74668777 416.40186634 186.75348405 424.6511173 C186.75675346 428.86053311 186.75679079 433.06988344 186.7481308 437.27929306 C186.74028333 441.13339394 186.74167925 444.98737721 186.75041493 448.84147516 C186.75195381 450.23517562 186.75011918 451.62888479 186.74455485 453.02257499 C186.59855434 462.72179106 186.59855434 462.72179106 189 472 C192.99884207 475.99884207 195.90019778 476.95019586 201.44824219 477.08178711 C202.81450565 477.06815558 204.18072688 477.04972653 205.546875 477.02734375 C207.04687263 477.0146903 208.54687276 477.00232988 210.046875 476.99023438 C212.39461176 476.96551363 214.74221609 476.93761127 217.08984375 476.90405273 C219.36719531 476.87356963 221.64438261 476.85598654 223.921875 476.83984375 C224.611745 476.82638412 225.30161499 476.8129245 226.01239014 476.79905701 C232.11249757 476.76816514 237.69348683 477.49575228 242.875 480.875 C247.33264525 485.33264525 247.30557043 489.50986276 247.32226562 495.60473633 C247.33219543 496.47189774 247.34212524 497.33905914 247.35235596 498.23249817 C247.38154696 501.09904159 247.39519404 503.96536366 247.40625 506.83203125 C247.41775724 508.82736719 247.42927265 510.82270309 247.4407959 512.81803894 C247.46180098 517.00183135 247.47349601 521.18554706 247.48046875 525.36938477 C247.4914356 530.72293574 247.53948854 536.07546864 247.59641266 541.42870045 C247.63371429 545.55090774 247.64407912 549.67287098 247.6471405 553.79523277 C247.65318375 555.76838434 247.66920816 557.7415321 247.69551086 559.71451759 C247.72974067 562.47948637 247.72584975 565.24198365 247.71289062 568.00708008 C247.73132019 568.81719543 247.74974976 569.62731079 247.76873779 570.4619751 C247.69004543 575.83927502 246.30878179 578.67308804 242.70004463 582.64662457 C237.08691737 587.11513581 228.39877255 586.30418436 221.6015625 586.34375 C220.64478607 586.3583728 219.68800964 586.37299561 218.70223999 586.38806152 C214.64521038 586.4498965 210.58804135 586.49012187 206.53076172 586.53173828 C203.55419812 586.56539587 200.57796054 586.61048593 197.6015625 586.65625 C196.68283356 586.6615271 195.76410461 586.6668042 194.8175354 586.67224121 C193.96589813 586.68565552 193.11426086 586.69906982 192.23681641 586.71289062 C191.48896881 586.72018188 190.74112122 586.72747314 189.97061157 586.73498535 C187.68017106 586.89627028 187.68017106 586.89627028 185 589 C181.8984375 588.94140625 181.8984375 588.94140625 178.375 588.5625 C176.25337561 588.34003387 174.12841373 588.14365327 172 588 C171.67 588.33 171.34 588.66 171 589 C168.81360547 589.07258946 166.62499611 589.08373783 164.4375 589.0625 C162.64119141 589.04896484 162.64119141 589.04896484 160.80859375 589.03515625 C159.88175781 589.02355469 158.95492187 589.01195312 158 589 C158 588.34 158 587.68 158 587 C155.69 587.33 153.38 587.66 151 588 C151 587.34 151 586.68 151 586 C150.16912117 586.01879211 150.16912117 586.01879211 149.32145691 586.03796387 C97.3360767 587.20838883 97.3360767 587.20838883 75 587 C75 587.33 75 587.66 75 588 C73.35 588 71.7 588 70 588 C70 587.67 70 587.34 70 587 C68.02 586.67 66.04 586.34 64 586 C64 586.66 64 587.32 64 588 C62.35 587.34 60.7 586.68 59 586 C58.67 586.66 58.34 587.32 58 588 C58 587.34 58 586.68 58 586 C56.68 586.33 55.36 586.66 54 587 C54 587.33 54 587.66 54 588 C52.00045254 588.04254356 49.99958364 588.04080783 48 588 C47.67 587.67 47.34 587.34 47 587 C45.61839885 586.9072167 44.23211962 586.88252957 42.84741211 586.88647461 C41.52615578 586.88658791 41.52615578 586.88658791 40.1782074 586.88670349 C38.74227989 586.89444542 38.74227989 586.89444542 37.27734375 586.90234375 C36.30213272 586.9037587 35.32692169 586.90517365 34.32215881 586.90663147 C31.19390857 586.91224867 28.06572877 586.92480407 24.9375 586.9375 C22.82226666 586.94251278 20.70703219 586.94707607 18.59179688 586.95117188 C13.39450704 586.96222369 8.19725855 586.97897854 3 587 C3 587.33 3 587.66 3 588 C-0.85546463 588.07414355 -4.29263803 588.09847762 -8 587 C-8.66 587 -9.32 587 -10 587 C-10 587.66 -10 588.32 -10 589 C-11.258125 588.835 -12.51625 588.67 -13.8125 588.5 C-16.26456585 588.17841759 -18.51650694 588 -21 588 C-22.66666667 588 -24.33333333 588 -26 588 C-26 587.34 -26 586.68 -26 586 C-28.97 586.33 -31.94 586.66 -35 587 C-35 587.33 -35 587.66 -35 588 C-42.23683142 588.91338649 -47.38451477 589.30774261 -54 586 C-55.11375 585.773125 -56.2275 585.54625 -57.375 585.3125 C-61.99199246 583.64083032 -64.40727116 581.12400493 -67 577 C-72.36502146 559.84191941 -69.09252994 536.13063585 -68.80291748 518.35775757 C-68.76780623 516.17132285 -68.73720431 513.98481079 -68.71124268 511.79824829 C-68.67161179 508.6892376 -68.61214964 505.58122256 -68.546875 502.47265625 C-68.53729767 501.54874084 -68.52772034 500.62482544 -68.51785278 499.6729126 C-68.34905252 493.22031723 -67.97938534 486.42899671 -63.56732178 481.35112 C-58.96267616 477.580988 -54.58550675 477.30413291 -48.8125 477.3984375 C-47.52049683 477.38642807 -47.52049683 477.38642807 -46.20239258 477.37417603 C-43.46777498 477.3512265 -40.73465565 477.36052071 -38 477.375 C-35.26562582 477.37886075 -32.53190876 477.37530366 -29.79760742 477.35440063 C-28.102497 477.34240992 -26.40720129 477.34481677 -24.7121582 477.36410522 C-19.39991343 477.33913443 -15.64360802 476.67211384 -11 474 C-8.17441234 470.23340893 -7.62503121 467.5126933 -7.62526989 462.85176754 C-7.61446008 460.98562673 -7.61446008 460.98562673 -7.60343188 459.0817861 C-7.61060872 457.70401298 -7.61806762 456.3262413 -7.6257782 454.94847107 C-7.62303772 453.4826995 -7.61898574 452.01692989 -7.61373454 450.55116516 C-7.60313713 446.52254863 -7.61128346 442.49415364 -7.62248504 438.46554673 C-7.63131854 434.12126771 -7.62288603 429.77701796 -7.61662292 425.43273926 C-7.60712816 416.92227392 -7.61374057 408.41189329 -7.62588587 399.90143424 C-7.63949686 389.99551803 -7.63786882 380.08962208 -7.63575254 370.1836989 C-7.6325617 352.51250386 -7.64423611 334.84134911 -7.66381836 317.17016602 C-7.6828258 300.01325249 -7.68990527 282.85638619 -7.68432617 265.69946289 C-7.67827197 247.02620156 -7.67843864 228.352961 -7.689812 209.67970139 C-7.69101932 207.68961052 -7.69222531 205.69951965 -7.69342995 203.70942879 C-7.69403349 202.73020743 -7.69463702 201.75098607 -7.69525885 200.74209134 C-7.69914227 193.83294068 -7.69874275 186.92379775 -7.6968441 180.01464653 C-7.69472467 171.59846787 -7.69992714 163.18233062 -7.71445765 154.76616364 C-7.72171421 150.47002464 -7.72576793 146.17394603 -7.72121429 141.8778019 C-7.71715025 137.94806269 -7.72226794 134.01844841 -7.73484037 130.0887282 C-7.73777821 128.66418895 -7.73732096 127.23963799 -7.73319729 125.81510168 C-7.72811366 123.88420054 -7.73645358 121.95327784 -7.74552441 120.02239132 C-7.74639118 118.94821483 -7.74725796 117.87403833 -7.748151 116.76731104 C-8.00390387 113.95710435 -8.47030892 112.34879933 -10 110 C-13.35781445 107.45895123 -15.78396381 106.43026538 -20 107 C-20.66 107.66 -21.32 108.32 -22 109 C-22.9075 108.649375 -23.815 108.29875 -24.75 107.9375 C-28.07511394 106.97833252 -28.86522368 107.08990365 -32 108 C-34.75 107.5625 -34.75 107.5625 -37 107 C-37 107.33 -37 107.66 -37 108 C-42.90973892 108.99165687 -47.26871301 109.14923262 -53 107 C-53.74507813 106.73058594 -54.49015625 106.46117187 -55.2578125 106.18359375 C-60.69908098 104.03761493 -63.74335649 101.88496526 -67 97 C-68.32998346 93.2826361 -68.14779034 89.44308506 -68.14526367 85.54443359 C-68.14862228 84.79913391 -68.1519809 84.05383423 -68.15544128 83.28594971 C-68.16493406 80.82342863 -68.16689396 78.36097574 -68.16796875 75.8984375 C-68.17118392 74.17933118 -68.17454819 72.46022513 -68.17805481 70.74111938 C-68.18404291 67.13486091 -68.18589518 63.52862638 -68.18530273 59.92236328 C-68.18520146 55.3228036 -68.19881926 50.7233995 -68.21607494 46.12387657 C-68.22725061 42.57031565 -68.22922019 39.01679157 -68.22869301 35.46321487 C-68.22986607 33.76891166 -68.23424963 32.07460728 -68.24202538 30.3803215 C-68.27787855 21.75667214 -68.31153669 13.3884279 -66 5 C-65.401875 4.855625 -64.80375 4.71125 -64.1875 4.5625 C-62.43849596 4.1127561 -60.71322977 3.57107659 -59 3 C-58.67 2.34 -58.34 1.68 -58 1 C-50.38281972 0.97466455 -42.76565028 0.95713925 -35.1484375 0.94506836 C-32.55663649 0.94003668 -29.96483833 0.93321073 -27.37304688 0.92456055 C-23.64973245 0.91244409 -19.92645553 0.90676005 -16.203125 0.90234375 C-14.46231659 0.89460182 -14.46231659 0.89460182 -12.68634033 0.88670349 C-11.06511261 0.88659019 -11.06511261 0.88659019 -9.41113281 0.88647461 C-7.98550018 0.88314369 -7.98550018 0.88314369 -6.53106689 0.87974548 C-4.20226513 0.9903901 -2.22792724 1.33917863 0 2 C0 1.34 0 0.68 0 0 Z M-52 106 C-48 107 -48 107 -48 107 Z M-47 106 C-47 106.33 -47 106.66 -47 107 C-45.02 107 -43.04 107 -41 107 C-41 106.67 -41 106.34 -41 106 C-42.98 106 -44.96 106 -47 106 Z M203 106 C207 107 207 107 207 107 Z M222 106 C222 106.33 222 106.66 222 107 C225.3 107 228.6 107 232 107 C232 106.67 232 106.34 232 106 C228.7 106 225.4 106 222 106 Z M-45 586 C-44.67 586.66 -44.34 587.32 -44 588 C-43.01 587.34 -42.02 586.68 -41 586 C-42.32 586 -43.64 586 -45 586 Z M160 586 C160 586.33 160 586.66 160 587 C162.31 587 164.62 587 167 587 C167 586.67 167 586.34 167 586 C164.69 586 162.38 586 160 586 Z " fill="#E63631" transform="translate(418,219)"/>
<path d="M0 0 C0.80999451 0.16298584 1.61998901 0.32597168 2.45452881 0.49389648 C6.58687424 1.08377423 10.56102628 1.1246255 14.72753906 1.09765625 C15.58351685 1.09619598 16.43949463 1.09473572 17.32141113 1.0932312 C19.17111035 1.08943905 21.02080598 1.0833372 22.87049103 1.07516479 C25.79515816 1.06237081 28.71977981 1.05587836 31.64447021 1.05102539 C37.84633397 1.03961784 44.04816002 1.02035667 50.25 1 C57.45061723 0.97642325 64.65121339 0.95604007 71.85186005 0.94406128 C74.7380405 0.93756212 77.62415607 0.92505764 80.51031494 0.91235352 C82.2702224 0.90872284 84.03013046 0.90537088 85.79003906 0.90234375 C86.59628723 0.89717743 87.4025354 0.89201111 88.23321533 0.88668823 C93.77231324 0.88615662 93.77231324 0.88615662 96 2 C96.33 1.34 96.66 0.68 97 0 C97.61608627 0.16298584 98.23217255 0.32597168 98.8669281 0.49389648 C103.29667427 1.20945941 107.6493165 1.12183374 112.12915039 1.09765625 C113.14804352 1.09619598 114.16693665 1.09473572 115.21670532 1.0932312 C117.43086798 1.08942685 119.6450276 1.08331201 121.85917854 1.07516479 C125.39159374 1.06234049 128.92397103 1.05586741 132.45640564 1.05102539 C141.25114881 1.03768236 150.0458571 1.01377753 158.84057617 0.98962402 C176.22730153 0.94267262 193.61333055 0.92479109 211 1 C212.29974888 1.00422974 212.29974888 1.00422974 213.62575531 1.00854492 C218.45909239 1.02642531 223.2887479 1.08772864 228.12109375 1.1875 C229.19198746 1.19322021 230.26288116 1.19894043 231.3662262 1.20483398 C235.78461903 1.33960781 238.99749814 1.52474049 242.55493164 4.30078125 C246.93938684 9.14097463 247.3038369 12.81812765 247.32226562 19.23754883 C247.33219543 20.06569595 247.34212524 20.89384308 247.35235596 21.74708557 C247.38153897 24.48376809 247.3951927 27.22021876 247.40625 29.95703125 C247.41775798 31.8626862 247.42927338 33.76834111 247.4407959 35.67399597 C247.46179876 39.66947506 247.4734952 43.66487388 247.48046875 47.66040039 C247.49143466 52.77183594 247.53948613 57.88220494 247.59641266 62.99330616 C247.63372328 66.93022224 247.64407958 70.86688287 247.6471405 74.8039608 C247.65318184 76.68780027 247.66919981 78.57163587 247.69551086 80.45530128 C247.72976009 83.095774 247.72584565 85.73366074 247.71289062 88.37426758 C247.73132019 89.14697998 247.74974976 89.91969238 247.76873779 90.71582031 C247.68697006 96.05619231 246.16998629 98.75359692 242.51631927 102.62322521 C237.2323339 107.42093369 230.15598766 108.71663721 223.25 109.1875 C221 109 221 109 219 107 C218.01 107 217.02 107 216 107 C214.33333333 107 212.66666667 107 211 107 C210.67 107.66 210.34 108.32 210 109 C204.8875461 109.09295371 200.043262 108.84691013 194.98046875 108.12109375 C192.78766058 107.86325956 192.78766058 107.86325956 190 109 C188.81608777 111.37625345 188.81608777 111.37625345 188 114 C187.67 114.99 187.34 115.98 187 117 C186.90612942 118.92633599 186.87265671 120.85581391 186.87136555 122.78443527 C186.86652888 124.60525214 186.86652888 124.60525214 186.8615945 126.46285319 C186.86306577 127.81693072 186.8646335 129.17100814 186.86628723 130.52508545 C186.86441997 131.9581169 186.86211961 133.39114785 186.85942191 134.82417798 C186.8532868 138.77163912 186.85343951 142.71907914 186.85461628 146.66654396 C186.85481986 150.92024693 186.84930558 155.17394303 186.84455872 159.42764282 C186.8362419 167.76556806 186.8335034 176.10348624 186.83294634 184.44141528 C186.8324716 191.21807803 186.83041898 197.99473844 186.82724571 204.77140045 C186.81843581 223.97567744 186.81382678 243.17994882 186.81457619 262.38422784 C186.81461614 263.42016703 186.8146561 264.45610622 186.81469727 265.5234375 C186.81475859 267.07923939 186.81475859 267.07923939 186.81482115 268.66647163 C186.81522756 285.47453036 186.80565997 302.28256669 186.7915589 319.09061894 C186.77720123 336.34038861 186.7702884 353.59014735 186.77115268 370.83992314 C186.77148489 380.52775979 186.76872726 390.21557296 186.75797462 399.90340424 C186.74887757 408.15265235 186.74668777 416.40186634 186.75348405 424.6511173 C186.75675346 428.86053311 186.75679079 433.06988344 186.7481308 437.27929306 C186.74028333 441.13339394 186.74167925 444.98737721 186.75041493 448.84147516 C186.75195381 450.23517562 186.75011918 451.62888479 186.74455485 453.02257499 C186.59855434 462.72179106 186.59855434 462.72179106 189 472 C192.99884207 475.99884207 195.90019778 476.95019586 201.44824219 477.08178711 C202.81450565 477.06815558 204.18072688 477.04972653 205.546875 477.02734375 C207.04687263 477.0146903 208.54687276 477.00232988 210.046875 476.99023438 C212.39461176 476.96551363 214.74221609 476.93761127 217.08984375 476.90405273 C219.36719531 476.87356963 221.64438261 476.85598654 223.921875 476.83984375 C224.611745 476.82638412 225.30161499 476.8129245 226.01239014 476.79905701 C232.11249757 476.76816514 237.69348683 477.49575228 242.875 480.875 C247.33264525 485.33264525 247.30557043 489.50986276 247.32226562 495.60473633 C247.33219543 496.47189774 247.34212524 497.33905914 247.35235596 498.23249817 C247.38154696 501.09904159 247.39519404 503.96536366 247.40625 506.83203125 C247.41775724 508.82736719 247.42927265 510.82270309 247.4407959 512.81803894 C247.46180098 517.00183135 247.47349601 521.18554706 247.48046875 525.36938477 C247.4914356 530.72293574 247.53948854 536.07546864 247.59641266 541.42870045 C247.63371429 545.55090774 247.64407912 549.67287098 247.6471405 553.79523277 C247.65318375 555.76838434 247.66920816 557.7415321 247.69551086 559.71451759 C247.72974067 562.47948637 247.72584975 565.24198365 247.71289062 568.00708008 C247.73132019 568.81719543 247.74974976 569.62731079 247.76873779 570.4619751 C247.69004543 575.83927502 246.30878179 578.67308804 242.70004463 582.64662457 C237.08691737 587.11513581 228.39877255 586.30418436 221.6015625 586.34375 C220.64478607 586.3583728 219.68800964 586.37299561 218.70223999 586.38806152 C214.64521038 586.4498965 210.58804135 586.49012187 206.53076172 586.53173828 C203.55419812 586.56539587 200.57796054 586.61048593 197.6015625 586.65625 C196.68283356 586.6615271 195.76410461 586.6668042 194.8175354 586.67224121 C193.96589813 586.68565552 193.11426086 586.69906982 192.23681641 586.71289062 C191.48896881 586.72018188 190.74112122 586.72747314 189.97061157 586.73498535 C187.68017106 586.89627028 187.68017106 586.89627028 185 589 C181.8984375 588.94140625 181.8984375 588.94140625 178.375 588.5625 C176.25337561 588.34003387 174.12841373 588.14365327 172 588 C171.67 588.33 171.34 588.66 171 589 C168.81360547 589.07258946 166.62499611 589.08373783 164.4375 589.0625 C162.64119141 589.04896484 162.64119141 589.04896484 160.80859375 589.03515625 C159.88175781 589.02355469 158.95492187 589.01195312 158 589 C158 588.34 158 587.68 158 587 C155.69 587.33 153.38 587.66 151 588 C151 587.34 151 586.68 151 586 C150.16912117 586.01879211 150.16912117 586.01879211 149.32145691 586.03796387 C97.3360767 587.20838883 97.3360767 587.20838883 75 587 C75 587.33 75 587.66 75 588 C73.35 588 71.7 588 70 588 C70 587.67 70 587.34 70 587 C68.02 586.67 66.04 586.34 64 586 C64 586.66 64 587.32 64 588 C62.35 587.34 60.7 586.68 59 586 C58.67 586.66 58.34 587.32 58 588 C58 587.34 58 586.68 58 586 C56.68 586.33 55.36 586.66 54 587 C54 587.33 54 587.66 54 588 C52.00045254 588.04254356 49.99958364 588.04080783 48 588 C47.67 587.67 47.34 587.34 47 587 C45.61839885 586.9072167 44.23211962 586.88252957 42.84741211 586.88647461 C41.52615578 586.88658791 41.52615578 586.88658791 40.1782074 586.88670349 C38.74227989 586.89444542 38.74227989 586.89444542 37.27734375 586.90234375 C36.30213272 586.9037587 35.32692169 586.90517365 34.32215881 586.90663147 C31.19390857 586.91224867 28.06572877 586.92480407 24.9375 586.9375 C22.82226666 586.94251278 20.70703219 586.94707607 18.59179688 586.95117188 C13.39450704 586.96222369 8.19725855 586.97897854 3 587 C3 587.33 3 587.66 3 588 C-0.85546463 588.07414355 -4.29263803 588.09847762 -8 587 C-8.66 587 -9.32 587 -10 587 C-10 587.66 -10 588.32 -10 589 C-11.258125 588.835 -12.51625 588.67 -13.8125 588.5 C-16.26456585 588.17841759 -18.51650694 588 -21 588 C-22.66666667 588 -24.33333333 588 -26 588 C-26 587.34 -26 586.68 -26 586 C-28.97 586.33 -31.94 586.66 -35 587 C-35 587.33 -35 587.66 -35 588 C-42.23683142 588.91338649 -47.38451477 589.30774261 -54 586 C-55.11375 585.773125 -56.2275 585.54625 -57.375 585.3125 C-61.99199246 583.64083032 -64.40727116 581.12400493 -67 577 C-72.36502146 559.84191941 -69.09252994 536.13063585 -68.80291748 518.35775757 C-68.76780623 516.17132285 -68.73720431 513.98481079 -68.71124268 511.79824829 C-68.67161179 508.6892376 -68.61214964 505.58122256 -68.546875 502.47265625 C-68.53729767 501.54874084 -68.52772034 500.62482544 -68.51785278 499.6729126 C-68.34905252 493.22031723 -67.97938534 486.42899671 -63.56732178 481.35112 C-58.96267616 477.580988 -54.58550675 477.30413291 -48.8125 477.3984375 C-47.52049683 477.38642807 -47.52049683 477.38642807 -46.20239258 477.37417603 C-43.46777498 477.3512265 -40.73465565 477.36052071 -38 477.375 C-35.26562582 477.37886075 -32.53190876 477.37530366 -29.79760742 477.35440063 C-28.102497 477.34240992 -26.40720129 477.34481677 -24.7121582 477.36410522 C-19.39991343 477.33913443 -15.64360802 476.67211384 -11 474 C-8.17441234 470.23340893 -7.62503121 467.5126933 -7.62526989 462.85176754 C-7.61446008 460.98562673 -7.61446008 460.98562673 -7.60343188 459.0817861 C-7.61060872 457.70401298 -7.61806762 456.3262413 -7.6257782 454.94847107 C-7.62303772 453.4826995 -7.61898574 452.01692989 -7.61373454 450.55116516 C-7.60313713 446.52254863 -7.61128346 442.49415364 -7.62248504 438.46554673 C-7.63131854 434.12126771 -7.62288603 429.77701796 -7.61662292 425.43273926 C-7.60712816 416.92227392 -7.61374057 408.41189329 -7.62588587 399.90143424 C-7.63949686 389.99551803 -7.63786882 380.08962208 -7.63575254 370.1836989 C-7.6325617 352.51250386 -7.64423611 334.84134911 -7.66381836 317.17016602 C-7.6828258 300.01325249 -7.68990527 282.85638619 -7.68432617 265.69946289 C-7.67827197 247.02620156 -7.67843864 228.352961 -7.689812 209.67970139 C-7.69101932 207.68961052 -7.69222531 205.69951965 -7.69342995 203.70942879 C-7.69403349 202.73020743 -7.69463702 201.75098607 -7.69525885 200.74209134 C-7.69914227 193.83294068 -7.69874275 186.92379775 -7.6968441 180.01464653 C-7.69472467 171.59846787 -7.69992714 163.18233062 -7.71445765 154.76616364 C-7.72171421 150.47002464 -7.72576793 146.17394603 -7.72121429 141.8778019 C-7.71715025 137.94806269 -7.72226794 134.01844841 -7.73484037 130.0887282 C-7.73777821 128.66418895 -7.73732096 127.23963799 -7.73319729 125.81510168 C-7.72811366 123.88420054 -7.73645358 121.95327784 -7.74552441 120.02239132 C-7.74639118 118.94821483 -7.74725796 117.87403833 -7.748151 116.76731104 C-8.00390387 113.95710435 -8.47030892 112.34879933 -10 110 C-13.35781445 107.45895123 -15.78396381 106.43026538 -20 107 C-20.66 107.66 -21.32 108.32 -22 109 C-22.9075 108.649375 -23.815 108.29875 -24.75 107.9375 C-28.07511394 106.97833252 -28.86522368 107.08990365 -32 108 C-34.75 107.5625 -34.75 107.5625 -37 107 C-37 107.33 -37 107.66 -37 108 C-42.90973892 108.99165687 -47.26871301 109.14923262 -53 107 C-53.74507813 106.73058594 -54.49015625 106.46117187 -55.2578125 106.18359375 C-60.69908098 104.03761493 -63.74335649 101.88496526 -67 97 C-68.32998346 93.2826361 -68.14779034 89.44308506 -68.14526367 85.54443359 C-68.14862228 84.79913391 -68.1519809 84.05383423 -68.15544128 83.28594971 C-68.16493406 80.82342863 -68.16689396 78.36097574 -68.16796875 75.8984375 C-68.17118392 74.17933118 -68.17454819 72.46022513 -68.17805481 70.74111938 C-68.18404291 67.13486091 -68.18589518 63.52862638 -68.18530273 59.92236328 C-68.18520146 55.3228036 -68.19881926 50.7233995 -68.21607494 46.12387657 C-68.22725061 42.57031565 -68.22922019 39.01679157 -68.22869301 35.46321487 C-68.22986607 33.76891166 -68.23424963 32.07460728 -68.24202538 30.3803215 C-68.27787855 21.75667214 -68.31153669 13.3884279 -66 5 C-65.401875 4.855625 -64.80375 4.71125 -64.1875 4.5625 C-62.43849596 4.1127561 -60.71322977 3.57107659 -59 3 C-58.67 2.34 -58.34 1.68 -58 1 C-50.38281972 0.97466455 -42.76565028 0.95713925 -35.1484375 0.94506836 C-32.55663649 0.94003668 -29.96483833 0.93321073 -27.37304688 0.92456055 C-23.64973245 0.91244409 -19.92645553 0.90676005 -16.203125 0.90234375 C-14.46231659 0.89460182 -14.46231659 0.89460182 -12.68634033 0.88670349 C-11.06511261 0.88659019 -11.06511261 0.88659019 -9.41113281 0.88647461 C-7.98550018 0.88314369 -7.98550018 0.88314369 -6.53106689 0.87974548 C-4.20226513 0.9903901 -2.22792724 1.33917863 0 2 C0 1.34 0 0.68 0 0 Z M-55 17 C-55.30817876 20.14424961 -55.30817876 20.14424961 -55.25878906 23.89648438 C-55.2622937 24.60557449 -55.26579834 25.31466461 -55.26940918 26.04524231 C-55.27822921 28.39484375 -55.27237652 30.74414537 -55.265625 33.09375 C-55.26697158 34.72277891 -55.26891204 36.35180743 -55.27142334 37.98083496 C-55.27437497 41.39725567 -55.27007577 44.81357189 -55.26074219 48.22998047 C-55.24934758 52.61517401 -55.25590686 57.00012276 -55.26788712 61.38530731 C-55.27510471 64.74983575 -55.27281826 68.11430589 -55.26763153 71.47883606 C-55.26629475 73.09601368 -55.26794374 74.71319655 -55.27259064 76.33036804 C-55.27765428 78.58822709 -55.26994826 80.84568644 -55.25878906 83.10351562 C-55.25719788 84.38987915 -55.25560669 85.67624268 -55.25396729 87.00158691 C-55.31484589 90.11509093 -55.31484589 90.11509093 -53 92 C-50.27385222 92.18523002 -47.64057753 92.25267229 -44.9140625 92.23828125 C-43.24348168 92.25372446 -41.57290864 92.27002975 -39.90234375 92.28710938 C-37.27830762 92.30343346 -34.65484348 92.31258145 -32.03076172 92.30541992 C-9.67649999 92.28202345 -9.67649999 92.28202345 -0.98486328 99.72583008 C6.64187439 107.5463047 6.43506733 117.18372417 6.38768005 127.44784546 C6.39185641 128.92018083 6.39733558 130.39251298 6.40399987 131.8648392 C6.41843374 135.89788461 6.41421622 139.93072531 6.40683305 143.96378183 C6.40209856 148.31835751 6.41461374 152.67288907 6.42485046 157.02745056 C6.44203847 165.5535451 6.44287844 174.07956594 6.43763756 182.6056733 C6.43359452 189.53665952 6.43504102 196.46762398 6.44038582 203.39860916 C6.44113424 204.38544198 6.44188266 205.37227479 6.44265376 206.38901163 C6.44418526 208.39383105 6.44572361 210.39865047 6.44726873 212.40346988 C6.46099386 231.20056018 6.45555606 249.99760884 6.44408352 268.79469819 C6.43415183 285.98520247 6.44709068 303.1755991 6.47101771 320.36608677 C6.49540983 338.0239733 6.50501626 355.6818097 6.49836498 373.33971274 C6.49487293 383.25059936 6.49710393 393.1614032 6.51461601 403.07227707 C6.5293394 411.50946841 6.52997165 419.94651869 6.5125451 428.38370727 C6.50403374 432.68675629 6.50188881 436.98955332 6.51719666 441.29258919 C6.53104981 445.23559259 6.5262728 449.17812828 6.50695742 453.12110467 C6.50319899 454.54364373 6.5061149 455.96622031 6.51656907 457.38872592 C6.57975183 466.64815501 5.97682252 474.86187847 0.140625 482.40234375 C-0.48328125 482.90894531 -1.1071875 483.41554688 -1.75 483.9375 C-2.67039062 484.72447266 -2.67039062 484.72447266 -3.609375 485.52734375 C-10.03627233 489.48639652 -15.8626574 490.44034524 -23.2421875 490.44140625 C-24.51656174 490.46121803 -24.51656174 490.46121803 -25.81668091 490.48143005 C-28.50282216 490.52199897 -31.18862338 490.54392502 -33.875 490.5625 C-36.58269906 490.58628969 -39.29007831 490.61432706 -41.99758911 490.65428162 C-43.6757589 490.67864573 -45.35409929 490.69349854 -47.03244019 490.69789124 C-51.48757105 490.57285805 -51.48757105 490.57285805 -55 493 C-55.19300258 495.49409647 -55.2623746 497.87664153 -55.24291992 500.37133789 C-55.24481827 501.13080215 -55.24671661 501.89026642 -55.24867249 502.67274475 C-55.25238496 505.18948607 -55.24167036 507.70594047 -55.23046875 510.22265625 C-55.22927721 511.96618109 -55.22882373 513.70970658 -55.2290802 515.45323181 C-55.22751457 519.10924287 -55.21921823 522.76515612 -55.20581055 526.42114258 C-55.18880801 531.11801567 -55.18499651 535.8147813 -55.18575573 540.51168156 C-55.18548441 544.11206598 -55.18000962 547.7124267 -55.17275429 551.31280327 C-55.16956233 553.04523985 -55.16759899 554.77767912 -55.16686058 556.51011848 C-55.16470328 558.92614489 -55.15597277 561.34205503 -55.14526367 563.75805664 C-55.14571686 564.48067688 -55.14617004 565.20329712 -55.14663696 565.94781494 C-55.41161726 569.25707597 -55.41161726 569.25707597 -54 572 C-52.46222085 572.09690672 -50.91997882 572.12371688 -49.37914944 572.12304783 C-48.37394046 572.12503888 -47.36873149 572.12702993 -46.33306164 572.12908131 C-44.65654123 572.12471205 -44.65654123 572.12471205 -42.94615173 572.12025452 C-41.76923423 572.12110894 -40.59231672 572.12196337 -39.37973505 572.12284368 C-36.09831915 572.12421186 -32.81696215 572.12106442 -29.53555334 572.11606562 C-26.00247722 572.1117644 -22.46940307 572.11320731 -18.93632507 572.1139679 C-12.81016034 572.11449334 -6.68400622 572.11134441 -0.55784416 572.10573006 C8.29965833 572.09761782 17.15715567 572.09500012 26.01466148 572.09374207 C40.38388205 572.09155111 54.75309696 572.08488985 69.12231445 572.07543945 C83.08422823 572.06626646 97.04614046 572.05918508 111.00805664 572.05493164 C111.86804864 572.05466892 112.72804065 572.05440619 113.61409301 572.05413551 C117.92823489 572.05283051 122.24237678 572.05156679 126.55651867 572.05032361 C162.37101645 572.03994964 198.18550778 572.02233014 234 572 C234.02312359 561.58657075 234.04091517 551.17314756 234.05181217 540.75969791 C234.05704097 535.92483173 234.06413854 531.08998306 234.07543945 526.25512695 C234.08626847 521.5932288 234.09227686 516.93134754 234.09487724 512.26943779 C234.09673147 510.48675712 234.10035203 508.70407741 234.10573006 506.92140388 C234.11294069 504.4333404 234.11399093 501.94534757 234.11352539 499.45727539 C234.11712067 498.71281158 234.12071594 497.96834778 234.12442017 497.20132446 C234.41980997 493.81432117 234.41980997 493.81432117 233 491 C230.16151103 490.90140287 227.34294303 490.86285336 224.50390625 490.859375 C222.72980509 490.84102605 220.95571623 490.82145386 219.18164062 490.80078125 C216.38398829 490.77197219 213.58711624 490.75000433 210.78930664 490.74951172 C189.4419724 490.72288698 189.4419724 490.72288698 181.41650391 483.59326172 C174.24310876 475.81453861 174.56688042 467.49368318 174.61231995 457.50709534 C174.60814492 456.01769848 174.60266647 454.5283048 174.59600013 453.03891701 C174.58154899 448.95414565 174.58578918 444.86957612 174.59316695 440.78479373 C174.59789712 436.37638701 174.58539012 431.96802405 174.57514954 427.55963135 C174.55795344 418.92645397 174.55712318 410.29334935 174.56236244 401.6601593 C174.56640374 394.64331969 174.56496106 387.62650159 174.55961418 380.60966301 C174.55886576 379.61101581 174.55811734 378.61236862 174.55734624 377.58345939 C174.55581476 375.55471897 174.55427641 373.52597856 174.55273127 371.49723815 C174.53900338 352.47225819 174.54444603 333.44731935 174.55591648 314.42234033 C174.56584991 297.0170265 174.55290679 279.61181895 174.52898229 262.20652152 C174.50460063 244.33397408 174.49498108 226.46147617 174.50163502 208.58891243 C174.50512921 198.5551141 174.50288188 188.52139753 174.48538399 178.48761177 C174.47067373 169.94640181 174.47001122 161.4053312 174.4874549 152.86412401 C174.49597683 148.50664862 174.49808539 144.14942227 174.48280334 139.79195976 C174.46898178 135.80152853 174.47368652 131.81156029 174.49304258 127.82115602 C174.49681069 126.37910731 174.4938572 124.93702174 174.48343093 123.49500579 C174.422322 114.39480051 174.82263922 107.95842194 180.859375 100.79296875 C181.48328125 100.26316406 182.1071875 99.73335938 182.75 99.1875 C183.67039062 98.37345703 183.67039062 98.37345703 184.609375 97.54296875 C190.95453185 93.44764692 196.94673623 92.54568739 204.3125 92.48828125 C205.07111328 92.47164429 205.82972656 92.45500732 206.61132812 92.43786621 C209.40727881 92.38064324 212.20368861 92.34795881 215 92.3125 C221.27 92.209375 227.54 92.10625 234 92 C234 66.59 234 41.18 234 15 C197.47193769 14.9559421 160.94390035 14.91900112 124.41581909 14.89786934 C120.1072908 14.89536781 115.79876257 14.89277917 111.49023438 14.89013672 C110.20356165 14.88934979 110.20356165 14.88934979 108.89089553 14.88854696 C94.98597277 14.87983478 81.08106647 14.86406035 67.1761535 14.84569441 C52.9176484 14.82701794 38.65915195 14.81588806 24.40063512 14.81182301 C15.59621693 14.80907326 6.79184528 14.80037593 -2.01255859 14.78416707 C-8.04295339 14.77362796 -14.07332398 14.77039237 -20.10372733 14.77299725 C-23.58746546 14.77428335 -27.07112203 14.7722564 -30.55484581 14.76158905 C-34.32458393 14.75171789 -38.09411879 14.75400235 -41.86386108 14.75949097 C-43.5301758 14.75075244 -43.5301758 14.75075244 -45.23015344 14.74183738 C-46.73572838 14.74781053 -46.73572838 14.74781053 -48.27171898 14.75390434 C-49.14279742 14.7531449 -50.01387585 14.75238546 -50.91135061 14.75160301 C-53.22022147 14.80778615 -53.22022147 14.80778615 -55 17 Z M-52 106 C-48 107 -48 107 -48 107 Z M-47 106 C-47 106.33 -47 106.66 -47 107 C-45.02 107 -43.04 107 -41 107 C-41 106.67 -41 106.34 -41 106 C-42.98 106 -44.96 106 -47 106 Z M203 106 C207 107 207 107 207 107 Z M222 106 C222 106.33 222 106.66 222 107 C225.3 107 228.6 107 232 107 C232 106.67 232 106.34 232 106 C228.7 106 225.4 106 222 106 Z M-45 586 C-44.67 586.66 -44.34 587.32 -44 588 C-43.01 587.34 -42.02 586.68 -41 586 C-42.32 586 -43.64 586 -45 586 Z M160 586 C160 586.33 160 586.66 160 587 C162.31 587 164.62 587 167 587 C167 586.67 167 586.34 167 586 C164.69 586 162.38 586 160 586 Z " fill="#292523" transform="translate(418,219)"/>
<path d="M0 0 C3 1 3 1 4.66390479 3.66974348 C6.06686322 7.16665854 6.37582829 9.53764641 6.37752342 13.28410435 C6.38534666 14.53305597 6.39316991 15.78200759 6.40123022 17.06880623 C6.39474468 18.4468782 6.38797474 19.82494886 6.38095093 21.20301819 C6.38440851 22.67306552 6.38917376 24.14311026 6.39513266 25.61314958 C6.40765838 29.64897133 6.40146518 33.68458031 6.39217401 37.72040284 C6.38539035 42.0742316 6.39586131 46.42802361 6.40411377 50.78184509 C6.41746025 59.30921469 6.41456938 67.83650512 6.40587585 76.36387784 C6.39910376 83.29304694 6.39818052 90.22219383 6.4014473 97.15136528 C6.401907 98.13713733 6.40236669 99.12290938 6.40284032 100.1385533 C6.40379949 102.14104745 6.40477213 104.14354159 6.4057581 106.14603572 C6.41431456 124.92723106 6.40447361 143.70838248 6.388357 162.48957061 C6.3749515 178.61066346 6.37728333 194.73169152 6.39111328 210.8527832 C6.40716098 229.56781549 6.41349276 248.28280929 6.40427649 266.9978475 C6.40332083 268.99271515 6.40237772 270.98758282 6.4014473 272.98245049 C6.40098447 273.96400025 6.40052164 274.94555002 6.40004479 275.95684372 C6.39745263 282.87956945 6.40183074 289.8022708 6.40888596 296.72499275 C6.41729206 305.15869896 6.41503949 313.59232138 6.39904372 322.02601797 C6.39114932 326.33041739 6.38808929 330.63467702 6.39799118 334.93907547 C6.40691433 338.87751253 6.40204474 342.81567988 6.38605852 346.75409239 C6.38270062 348.18063857 6.3844274 349.60720743 6.39168589 351.0337391 C6.40078282 352.96972271 6.3896754 354.90576994 6.37752342 356.84173679 C6.37703637 357.91802926 6.37654931 358.99432172 6.37604749 360.10322911 C5.94461481 363.42664344 4.97460357 365.31491147 3 368 C2.34 368.33 1.68 368.66 1 369 C1.57584432 366.61435923 2.22227595 364.33317216 3 362 C3.0948836 360.03535412 3.1291461 358.06759096 3.13142776 356.10065651 C3.13526891 354.86116143 3.13911005 353.62166635 3.1430676 352.34461081 C3.14228731 350.96164356 3.14140852 349.57867636 3.14044189 348.19570923 C3.1430248 346.7323786 3.14603776 345.26904868 3.1494453 343.80571973 C3.15752712 339.77458861 3.15930552 335.74347528 3.16004276 331.71233702 C3.16189124 327.36869038 3.16943747 323.02505303 3.17617798 318.68141174 C3.18976968 309.17949186 3.19578717 299.6775762 3.20018864 290.17564821 C3.20294934 284.24558071 3.20718635 278.31551485 3.21169281 272.38544846 C3.22388599 255.97493657 3.23418559 239.564426 3.2375679 223.15390968 C3.23789725 221.57795145 3.23789725 221.57795145 3.23823325 219.97015568 C3.23845153 218.91697074 3.23866981 217.8637858 3.2388947 216.77868617 C3.23933817 214.64444963 3.23978473 212.5102131 3.24023438 210.37597656 C3.2404558 209.31731638 3.24067723 208.25865619 3.24090537 207.16791539 C3.24485509 190.00606986 3.2623142 172.84426675 3.2855939 155.68243761 C3.30928805 138.07333356 3.32176885 120.46425081 3.32293582 102.85513055 C3.32385361 92.96389925 3.32963213 83.07272322 3.34775543 73.18150711 C3.36313023 64.76054821 3.36829238 56.33966167 3.36001733 47.91869141 C3.35610166 43.62038102 3.35708497 39.32221647 3.37107468 35.02392387 C3.38375869 31.09093084 3.38266485 27.15819405 3.37048396 23.22520165 C3.36851739 21.80057949 3.37164946 20.37593951 3.38032833 18.95134242 C3.39136347 17.01793301 3.38217283 15.08443958 3.3719368 13.15102577 C3.37253389 12.07614485 3.37313097 11.00126394 3.37374616 9.89381087 C2.94820399 6.59895815 1.81009332 4.7463101 0 2 C0 1.34 0 0.68 0 0 Z " fill="#261E1C" transform="translate(407,326)"/>
<path d="M0 0 C0.33 0.99 0.66 1.98 1 3 C0.53323858 3.9222994 0.06647717 4.84459879 -0.41442853 5.79484665 C-2.15105792 9.30535602 -2.37325363 11.39973851 -2.36914349 15.28245354 C-2.37511663 16.53100526 -2.38108978 17.77955698 -2.38724393 19.0659436 C-2.37868589 20.44353075 -2.36984913 21.82111618 -2.36076355 23.19869995 C-2.36207217 24.66818411 -2.36469964 26.13766759 -2.36853105 27.60714734 C-2.37523683 31.64123977 -2.36324213 35.67509311 -2.34819686 39.70915508 C-2.33524209 44.06082841 -2.33962557 48.41248823 -2.34190369 52.76417542 C-2.34347677 60.30246042 -2.33406385 67.84066754 -2.31719017 75.37893295 C-2.29280956 86.27798832 -2.28499586 97.17700602 -2.2812262 108.0760857 C-2.27466024 125.75907849 -2.25469516 143.44202976 -2.22631836 161.125 C-2.19878153 178.30240674 -2.1775461 195.47980221 -2.16479492 212.65722656 C-2.16400675 213.71603365 -2.16321858 214.77484074 -2.16240653 215.86573289 C-2.15849142 221.17745431 -2.15470029 226.48917581 -2.15097082 231.80089736 C-2.11987042 275.86729366 -2.06703069 319.93364469 -2 364 C-4.32508771 362.21408654 -4.9535233 361.32268285 -5.37834883 358.37316352 C-5.37992003 357.30630905 -5.38149123 356.23945458 -5.38311005 355.14027119 C-5.39216669 353.90959299 -5.40122333 352.6789148 -5.41055441 351.41094333 C-5.40544958 350.03790261 -5.40005746 348.66486293 -5.39440918 347.29182434 C-5.39929521 345.83887738 -5.40548367 344.3859343 -5.41286707 342.93299788 C-5.42932721 338.93040727 -5.42693637 334.92801284 -5.4214921 330.92540014 C-5.41882926 326.6123513 -5.43333985 322.29935565 -5.44558716 317.98632812 C-5.46667694 309.53174653 -5.47117991 301.07723345 -5.46939927 292.62262867 C-5.46809311 285.75061997 -5.47188833 278.8786327 -5.47932434 272.00662804 C-5.48142349 270.02924003 -5.48352109 268.05185203 -5.48561716 266.07446402 C-5.48666069 265.09032744 -5.48770422 264.10619086 -5.48877937 263.09223195 C-5.50769697 244.46404742 -5.50662725 225.83590224 -5.49981004 207.20771208 C-5.49423683 190.16424846 -5.51504785 173.12093528 -5.54817051 156.07750682 C-5.58190282 138.58476828 -5.59707618 121.0921018 -5.59245348 103.59933013 C-5.59020789 93.77559967 -5.59546466 83.95200814 -5.62034607 74.12830544 C-5.64135358 65.76264658 -5.64495695 57.39720279 -5.62604648 49.03153513 C-5.61688414 44.76314251 -5.61576042 40.49515093 -5.63640213 36.22678947 C-5.65509796 32.31752798 -5.6506249 28.40899632 -5.62785631 24.49976274 C-5.62366687 23.08720154 -5.62788233 21.67458454 -5.64145225 20.26208232 C-5.71604372 11.92877826 -5.25427299 6.62571391 0 0 Z " fill="#030304" transform="translate(607,327)"/>
<path d="M0 0 C1.21499176 0.24447876 1.21499176 0.24447876 2.45452881 0.49389648 C6.58687424 1.08377423 10.56102628 1.1246255 14.72753906 1.09765625 C15.58351685 1.09619598 16.43949463 1.09473572 17.32141113 1.0932312 C19.17111035 1.08943905 21.02080598 1.0833372 22.87049103 1.07516479 C25.79515816 1.06237081 28.71977981 1.05587836 31.64447021 1.05102539 C37.84633397 1.03961784 44.04816002 1.02035667 50.25 1 C57.45061723 0.97642325 64.65121339 0.95604007 71.85186005 0.94406128 C74.7380405 0.93756212 77.62415607 0.92505764 80.51031494 0.91235352 C82.2702224 0.90872284 84.03013046 0.90537088 85.79003906 0.90234375 C86.59628723 0.89717743 87.4025354 0.89201111 88.23321533 0.88668823 C93.77231324 0.88615662 93.77231324 0.88615662 96 2 C96.33 1.34 96.66 0.68 97 0 C97.61875 0.165 98.2375 0.33 98.875 0.5 C102.54648107 1.08743697 105.99066928 0.93361283 109.6953125 0.7421875 C112 1 112 1 115 4 C28.375 4.495 28.375 4.495 -60 5 C-59.34 3.68 -58.68 2.36 -58 1 C-50.38281972 0.97466455 -42.76565028 0.95713925 -35.1484375 0.94506836 C-32.55663649 0.94003668 -29.96483833 0.93321073 -27.37304688 0.92456055 C-23.64973245 0.91244409 -19.92645553 0.90676005 -16.203125 0.90234375 C-14.46231659 0.89460182 -14.46231659 0.89460182 -12.68634033 0.88670349 C-11.06511261 0.88659019 -11.06511261 0.88659019 -9.41113281 0.88647461 C-7.98550018 0.88314369 -7.98550018 0.88314369 -6.53106689 0.87974548 C-4.20226513 0.9903901 -2.22792724 1.33917863 0 2 C0 1.34 0 0.68 0 0 Z " fill="#191515" transform="translate(418,219)"/>
<path d="M0 0 C0.92232925 0.00707474 1.84465851 0.01414948 2.79493713 0.0214386 C5.719611 0.0492637 8.64231831 0.11197859 11.56640625 0.17578125 C13.55791492 0.20087954 15.54945381 0.22369002 17.54101562 0.24414062 C22.40439507 0.29905129 27.2663181 0.38524016 32.12890625 0.48828125 C31.79890625 1.14828125 31.46890625 1.80828125 31.12890625 2.48828125 C29.35060425 2.51015503 29.35060425 2.51015503 27.53637695 2.5324707 C23.12852148 2.59054063 18.72117221 2.66777309 14.3137207 2.75073242 C12.40787994 2.78394087 10.50194179 2.8119855 8.59594727 2.8347168 C5.8526061 2.86833793 3.11015403 2.9206572 0.3671875 2.9765625 C-0.90652962 2.98614738 -0.90652962 2.98614738 -2.20597839 2.9959259 C-6.88914459 3.11173458 -10.08781821 3.42945313 -13.87109375 6.48828125 C-16.45217989 10.35991046 -16.17826 13.59805469 -16.18994141 18.09057617 C-16.19998703 18.9688356 -16.21003265 19.84709503 -16.22038269 20.75196838 C-16.25129589 23.65755554 -16.26827242 26.56305022 -16.28515625 29.46875 C-16.30386135 31.48229269 -16.32343427 33.49582748 -16.34384155 35.50935364 C-16.39523823 40.81114048 -16.43482362 46.11295277 -16.47198486 51.41485596 C-16.51197729 56.82416108 -16.56309133 62.23335971 -16.61328125 67.64257812 C-16.71012976 78.25773777 -16.79450597 88.87295745 -16.87109375 99.48828125 C-17.53109375 99.48828125 -18.19109375 99.48828125 -18.87109375 99.48828125 C-23.95864925 81.9728514 -20.96828207 58.90479173 -20.67401123 40.84603882 C-20.63889998 38.6596041 -20.60829806 36.47309204 -20.58233643 34.28652954 C-20.54270554 31.17751885 -20.48324339 28.06950381 -20.41796875 24.9609375 C-20.40839142 24.03702209 -20.39881409 23.11310669 -20.38894653 22.16119385 C-20.2197731 15.69433338 -19.82811578 8.95796224 -15.46244812 3.8354187 C-10.69114633 -0.12399734 -5.98364831 -0.17496247 0 0 Z " fill="#0B0908" transform="translate(369.87109375,696.51171875)"/>
<path d="M0 0 C0.81742676 -0.00175232 1.63485352 -0.00350464 2.47705078 -0.00531006 C5.17645405 -0.0097038 7.87579138 -0.0067938 10.57519531 -0.00341797 C12.47731539 -0.00409301 14.37943539 -0.00506469 16.28155518 -0.00631714 C20.27950863 -0.00779185 24.27743977 -0.00565159 28.27539062 -0.00097656 C33.3202573 0.00464401 38.36507031 0.00140361 43.409935 -0.00442886 C64.178098 -0.02467542 84.90904763 0.0128505 105.65332031 1.12939453 C106.14832031 2.11939453 106.14832031 2.11939453 106.65332031 3.12939453 C66.39332031 3.12939453 26.13332031 3.12939453 -15.34667969 3.12939453 C-15.01667969 2.46939453 -14.68667969 1.80939453 -14.34667969 1.12939453 C-9.6020918 -0.02258899 -4.85424731 -0.01292152 0 0 Z " fill="#090808" transform="translate(549.3466796875,219.87060546875)"/>
<path d="M0 0 C58.08 0 116.16 0 176 0 C176 0.33 176 0.66 176 1 C174.02422974 1.029729 174.02422974 1.029729 172.00854492 1.06005859 C167.12748912 1.13605841 162.24673362 1.22478448 157.3659668 1.31738281 C155.25242028 1.35569581 153.13880804 1.39054457 151.02514648 1.421875 C147.9891814 1.46747504 144.95366972 1.52547783 141.91796875 1.5859375 C140.97100632 1.59748871 140.02404388 1.60903992 139.04838562 1.62094116 C137.72735588 1.6507457 137.72735588 1.6507457 136.37963867 1.68115234 C135.21714851 1.70113785 135.21714851 1.70113785 134.03117371 1.7215271 C131.68895197 1.89208435 131.68895197 1.89208435 129 4 C125.8984375 3.94140625 125.8984375 3.94140625 122.375 3.5625 C120.25337561 3.34003387 118.12841373 3.14365327 116 3 C115.67 3.33 115.34 3.66 115 4 C112.81360547 4.07258946 110.62499611 4.08373783 108.4375 4.0625 C106.64119141 4.04896484 106.64119141 4.04896484 104.80859375 4.03515625 C103.88175781 4.02355469 102.95492187 4.01195312 102 4 C102 3.34 102 2.68 102 2 C99.69 2.33 97.38 2.66 95 3 C95 2.34 95 1.68 95 1 C94.44608078 1.01252808 93.89216156 1.02505615 93.32145691 1.03796387 C41.3360767 2.20838883 41.3360767 2.20838883 19 2 C19 2.33 19 2.66 19 3 C17.35 3 15.7 3 14 3 C14 2.67 14 2.34 14 2 C11.03 1.505 11.03 1.505 8 1 C8 1.66 8 2.32 8 3 C5.525 2.01 5.525 2.01 3 1 C2.67 1.66 2.34 2.32 2 3 C2 2.34 2 1.68 2 1 C1.34 0.67 0.68 0.34 0 0 Z M104 1 C104 1.33 104 1.66 104 2 C106.31 2 108.62 2 111 2 C111 1.67 111 1.34 111 1 C108.69 1 106.38 1 104 1 Z " fill="#6A4F4A" transform="translate(474,804)"/>
<path d="M0 0 C2.50960518 3.76440777 2.30979873 6.76128508 2.32226562 11.12402344 C2.33219543 11.95202454 2.34212524 12.78002563 2.35235596 13.63311768 C2.38158951 16.37523719 2.39520235 19.11712518 2.40625 21.859375 C2.41775534 23.76645921 2.42927078 25.67354335 2.4407959 27.58062744 C2.46181419 31.5820829 2.47350004 35.58345804 2.48046875 39.58496094 C2.4914274 44.70427232 2.53945676 49.82251681 2.59641266 54.94149399 C2.63372703 58.88270123 2.64407986 62.82365333 2.6471405 66.76502228 C2.65318274 68.65165275 2.66920379 70.5382793 2.69551086 72.42473602 C2.72976222 75.07010589 2.7258447 77.71289465 2.71289062 80.35839844 C2.73132019 81.13268188 2.74974976 81.90696533 2.76873779 82.70471191 C2.68713628 88.04481518 1.15296005 90.80158089 -2.43180084 94.7298317 C-4 96 -4 96 -6.875 96.4375 C-7.57625 96.293125 -8.2775 96.14875 -9 96 C-8.401875 95.566875 -7.80375 95.13375 -7.1875 94.6875 C-4.57798235 92.67444353 -2.48240178 90.96480355 -1 88 C-0.8773686 85.22419471 -0.81427265 82.47185132 -0.79467773 79.69482422 C-0.78477814 78.83621796 -0.77487854 77.97761169 -0.76467896 77.09298706 C-0.73301961 74.24691553 -0.70828902 71.40082729 -0.68359375 68.5546875 C-0.66302805 66.58455972 -0.64203168 64.6144364 -0.62062073 62.64431763 C-0.56536039 57.45265298 -0.5159686 52.26094826 -0.46777344 47.06921387 C-0.41758731 41.77397077 -0.36188619 36.47878605 -0.30664062 31.18359375 C-0.1990106 20.78911234 -0.0975764 10.3945803 0 0 Z " fill="#070807" transform="translate(663,707)"/>
<path d="M0 0 C0.99 0.33 1.98 0.66 3 1 C3 29.38 3 57.76 3 87 C2.01 87 1.02 87 0 87 C0 58.29 0 29.58 0 0 Z " fill="#080808" transform="translate(662,229)"/>
<path d="M0 0 C0.33 0 0.66 0 1 0 C1 26.73 1 53.46 1 81 C0.34 80.67 -0.32 80.34 -1 80 C-1.92569703 61.02006233 -2.04431346 42.12288293 -1.625 23.125 C-1.60357941 22.0900238 -1.58215881 21.05504761 -1.56008911 19.9887085 C-1.49701224 17.03654704 -1.42612309 14.08470415 -1.3515625 11.1328125 C-1.33166763 10.2383844 -1.31177277 9.3439563 -1.29127502 8.42242432 C-1.11639634 2.23279268 -1.11639634 2.23279268 0 0 Z " fill="#2E2825" transform="translate(351,712)"/>
<path d="M0 0 C1.28087494 0.00007553 2.56174988 0.00015106 3.88143921 0.00022888 C5.26422159 0.00533434 6.64700358 0.01055031 8.02978516 0.01586914 C9.45610504 0.01773622 10.88242558 0.01915875 12.30874634 0.02015686 C16.04711708 0.02395924 19.78544844 0.03376987 23.52380371 0.04486084 C27.34480253 0.05512415 31.16580776 0.05966499 34.98681641 0.06469727 C42.47251136 0.07539436 49.95817397 0.09244316 57.44384766 0.11352539 C57.44384766 0.77352539 57.44384766 1.43352539 57.44384766 2.11352539 C33.77300133 3.20237274 10.13476473 3.22425449 -13.55615234 3.11352539 C-13.22615234 2.45352539 -12.89615234 1.79352539 -12.55615234 1.11352539 C-8.35533679 0.13502654 -4.29971471 -0.00849746 0 0 Z " fill="#1A1616" transform="translate(547.55615234375,219.886474609375)"/>
<path d="M0 0 C1.13566406 -0.00386719 2.27132812 -0.00773438 3.44140625 -0.01171875 C5.09076172 -0.00978516 5.09076172 -0.00978516 6.7734375 -0.0078125 C7.75489746 -0.00668457 8.73635742 -0.00555664 9.74755859 -0.00439453 C12.77381663 0.13169208 15.64945858 0.56960237 18.625 1.125 C18.295 2.115 17.965 3.105 17.625 4.125 C11.82230054 4.03161625 6.02002584 3.92555701 0.21777344 3.80761719 C-1.75709644 3.76927651 -3.73203736 3.7344327 -5.70703125 3.703125 C-8.54192545 3.65758453 -11.3763283 3.59957285 -14.2109375 3.5390625 C-15.54069107 3.52173569 -15.54069107 3.52173569 -16.89730835 3.50405884 C-17.71800812 3.48418915 -18.53870789 3.46431946 -19.38427734 3.44384766 C-20.4701564 3.42386215 -20.4701564 3.42386215 -21.57797241 3.4034729 C-23.375 3.125 -23.375 3.125 -25.375 1.125 C-16.89848845 0.2817667 -8.51590298 -0.02960337 0 0 Z " fill="#0E0C0B" transform="translate(637.375,695.875)"/>
<path d="M0 0 C4.42503487 -0.05031527 8.84990794 -0.08614055 13.27514648 -0.10986328 C14.77322294 -0.1197769 16.27128085 -0.13331185 17.76928711 -0.15087891 C28.0424686 -0.26812905 37.84770314 0.35207479 48 2 C48 2.33 48 2.66 48 3 C31.83 3.33 15.66 3.66 -1 4 C-0.67 2.68 -0.34 1.36 0 0 Z " fill="#0C0B0B" transform="translate(359,220)"/>
<path d="M0 0 C12.87 0 25.74 0 39 0 C33.34306569 4.52554745 33.34306569 4.52554745 29.3125 4.375 C28.16201172 4.35566406 28.16201172 4.35566406 26.98828125 4.3359375 C25 4 25 4 23 2 C22.01 2 21.02 2 20 2 C18.33333333 2 16.66666667 2 15 2 C14.67 2.66 14.34 3.32 14 4 C8.84828377 4.09038099 4.08086796 3.84681133 -1 3 C-0.67 2.01 -0.34 1.02 0 0 Z M7 1 C11 2 11 2 11 2 Z M26 1 C26 1.33 26 1.66 26 2 C29.3 2 32.6 2 36 2 C36 1.67 36 1.34 36 1 C32.7 1 29.4 1 26 1 Z " fill="#6C524D" transform="translate(614,324)"/>
<path d="M0 0 C0.86963379 0.16298584 1.73926758 0.32597168 2.63525391 0.49389648 C5.77223578 0.96574117 8.66904654 1.11468255 11.8359375 1.09765625 C13.43115234 1.09282227 13.43115234 1.09282227 15.05859375 1.08789062 C16.15300781 1.07951172 17.24742187 1.07113281 18.375 1.0625 C19.49261719 1.05798828 20.61023438 1.05347656 21.76171875 1.04882812 C24.50786804 1.03709244 27.25390586 1.02067363 30 1 C29.67 1.66 29.34 2.32 29 3 C18.58592264 3.5802869 8.18233063 4.09971206 -2.25 4.125 C-2.99805908 4.12951172 -3.74611816 4.13402344 -4.5168457 4.13867188 C-9.741843 4.12466853 -14.81487008 3.64557942 -20 3 C-20 2.34 -20 1.68 -20 1 C-17.41659616 0.97296438 -14.83347692 0.95314389 -12.25 0.9375 C-11.52039063 0.92912109 -10.79078125 0.92074219 -10.0390625 0.91210938 C-6.51329442 0.89608316 -3.38965084 1.04707287 0 2 C0 1.34 0 0.68 0 0 Z " fill="#241E1C" transform="translate(418,219)"/>
<path d="M0 0 C12.87 0 25.74 0 39 0 C37.02 0.99 37.02 0.99 35 2 C34.34 2.66 33.68 3.32 33 4 C32.0925 3.649375 31.185 3.29875 30.25 2.9375 C26.92488606 1.97833252 26.13477632 2.08990365 23 3 C20.25 2.5625 20.25 2.5625 18 2 C18 2.33 18 2.66 18 3 C12.06430556 3.99601222 7.65776822 4.19382849 2 2 C1.34 1.34 0.68 0.68 0 0 Z M3 1 C7 2 7 2 7 2 Z M8 1 C8 1.33 8 1.66 8 2 C9.98 2 11.96 2 14 2 C14 1.67 14 1.34 14 1 C12.02 1 10.04 1 8 1 Z " fill="#634B47" transform="translate(363,324)"/>
<path d="M0 0 C0.33 0 0.66 0 1 0 C1 18.15 1 36.3 1 55 C-0.88635878 51.22728244 -1.24952831 50.04719292 -1.24291992 46.07958984 C-1.24599655 45.10533051 -1.24907318 44.13107117 -1.25224304 43.12728882 C-1.24505753 42.08239288 -1.23787201 41.03749695 -1.23046875 39.9609375 C-1.23001053 38.88373444 -1.22955231 37.80653137 -1.2290802 36.69668579 C-1.22606136 34.42212826 -1.21818608 32.14757274 -1.20581055 29.87304688 C-1.18753369 26.38143641 -1.18530105 22.89009085 -1.18554688 19.3984375 C-1.18063234 17.19010186 -1.17480431 14.98176803 -1.16796875 12.7734375 C-1.16685593 11.7244931 -1.1657431 10.67554871 -1.16459656 9.59481812 C-1.15821671 8.6268631 -1.15183685 7.65890808 -1.14526367 6.66162109 C-1.14145187 5.8076474 -1.13764008 4.95367371 -1.13371277 4.07382202 C-1 2 -1 2 0 0 Z " fill="#5E4843" transform="translate(409,535)"/>
<path d="M0 0 C0.33 0.99 0.66 1.98 1 3 C0.53980469 3.86882812 0.07960938 4.73765625 -0.39453125 5.6328125 C-2.39465476 9.82771875 -2.55156813 13.29215409 -2.6875 17.875 C-2.72166016 18.65875 -2.75582031 19.4425 -2.79101562 20.25 C-2.87280412 22.16618748 -2.9380946 24.08306715 -3 26 C-3.66 26.33 -4.32 26.66 -5 27 C-5.13615919 23.99844627 -5.2346398 21.003179 -5.3125 18 C-5.3753418 16.74123047 -5.3753418 16.74123047 -5.43945312 15.45703125 C-5.56493539 8.98214649 -3.95100711 5.10290163 0 0 Z " fill="#050505" transform="translate(607,327)"/>
<path d="M0 0 C0.33 0 0.66 0 1 0 C1 12.87 1 25.74 1 39 C-1.52108651 36.47891349 -1.23700032 34.92732095 -1.25224304 31.48840332 C-1.24505753 30.73941772 -1.23787201 29.99043213 -1.23046875 29.21875 C-1.23001053 28.44946167 -1.22955231 27.68017334 -1.2290802 26.88757324 C-1.22605753 25.26015685 -1.21817074 23.63274336 -1.20581055 22.00537109 C-1.18757299 19.50998723 -1.18530073 17.01497475 -1.18554688 14.51953125 C-1.18063093 12.94010095 -1.17480228 11.36067317 -1.16796875 9.78125 C-1.16685593 9.0322644 -1.1657431 8.28327881 -1.16459656 7.51159668 C-1.11607161 2.23214321 -1.11607161 2.23214321 0 0 Z " fill="#5E4743" transform="translate(409,614)"/>
<path d="M0 0 C-1.50570062 3.01140123 -4.10144829 3.5627182 -7.08984375 4.90234375 C-9.31735191 5.99389198 -9.31735191 5.99389198 -11 9 C-11.39013716 10.9896995 -11.73202649 12.99019869 -12 15 C-12.99 15.33 -13.98 15.66 -15 16 C-14.09603837 9.80718821 -13.07921721 6.08815044 -8 2 C-4.77208445 -0.1519437 -3.71599191 -0.20086443 0 0 Z " fill="#191615" transform="translate(365,697)"/>
<path d="M0 0 C0.33 0 0.66 0 1 0 C1 10.23 1 20.46 1 31 C-1 29 -1 29 -1.24291992 26.32617188 C-1.23881104 25.21822266 -1.23470215 24.11027344 -1.23046875 22.96875 C-1.22853516 21.76605469 -1.22660156 20.56335938 -1.22460938 19.32421875 C-1.21236328 18.06222656 -1.20011719 16.80023438 -1.1875 15.5 C-1.18685547 14.23800781 -1.18621094 12.97601563 -1.18554688 11.67578125 C-1.14023184 2.28046368 -1.14023184 2.28046368 0 0 Z " fill="#5F4843" transform="translate(409,463)"/>
<path d="M0 0 C0 0.33 0 0.66 0 1 C-8.91 1 -17.82 1 -27 1 C-27 0.67 -27 0.34 -27 0 C-23.25175238 -0.39412904 -19.50137653 -0.76196356 -15.75 -1.125 C-14.68652344 -1.23714844 -13.62304688 -1.34929687 -12.52734375 -1.46484375 C-11.50253906 -1.56152344 -10.47773437 -1.65820312 -9.421875 -1.7578125 C-8.47924805 -1.8520752 -7.53662109 -1.94633789 -6.56542969 -2.04345703 C-3.80238921 -1.99665258 -2.334229 -1.42647328 0 0 Z " fill="#090909" transform="translate(533,222)"/>
<path d="M0 0 C0.33 0 0.66 0 1 0 C1 10.56 1 21.12 1 32 C0.67 32 0.34 32 0 32 C-0.97119254 25.50996733 -1.15105321 19.18172521 -1.125 12.625 C-1.12886719 11.62855469 -1.13273437 10.63210938 -1.13671875 9.60546875 C-1.13542969 8.65542969 -1.13414062 7.70539063 -1.1328125 6.7265625 C-1.13168457 5.86627441 -1.13055664 5.00598633 -1.12939453 4.11962891 C-1 2 -1 2 0 0 Z " fill="#5D4742" transform="translate(409,401)"/>
<path d="M0 0 C0.66 0 1.32 0 2 0 C2.62841797 0.70576172 2.62841797 0.70576172 3.26953125 1.42578125 C5.61673632 3.56104907 7.57915391 3.71210589 10.6875 4.1875 C11.68136719 4.34605469 12.67523438 4.50460937 13.69921875 4.66796875 C14.83810547 4.83232422 14.83810547 4.83232422 16 5 C16 5.66 16 6.32 16 7 C6.32231944 7.86066329 6.32231944 7.86066329 2.375 4.625 C0 2 0 2 0 0 Z " fill="#110F0E" transform="translate(353,797)"/>
<path d="M0 0 C0.66 0 1.32 0 2 0 C2.433125 1.11375 2.86625 2.2275 3.3125 3.375 C4.69911119 7.17512334 4.69911119 7.17512334 8 9 C9.9896995 9.39013716 11.99019869 9.73202649 14 10 C13.67 10.66 13.34 11.32 13 12 C9.54052509 11.9308105 6.93470737 11.77047462 4.19921875 9.515625 C0 4.82532816 0 4.82532816 0 0 Z " fill="#131110" transform="translate(351,312)"/>
<path d="M0 0 C0.33 0 0.66 0 1 0 C1.08120751 2.89640118 1.14059421 5.79050912 1.1875 8.6875 C1.21263672 9.50412109 1.23777344 10.32074219 1.26367188 11.16210938 C1.32170486 15.94015822 1.14903871 19.13423093 -2 23 C-2.66 23.33 -3.32 23.66 -4 24 C-3.55101143 21.90472 -3.12958002 20.21056753 -2 18.375 C-0.54723302 14.92467843 -0.53152462 11.44137233 -0.375 7.75 C-0.33632813 7.00492188 -0.29765625 6.25984375 -0.2578125 5.4921875 C-0.16394892 3.6618476 -0.08090282 1.83095857 0 0 Z " fill="#0A0808" transform="translate(412,671)"/>
<path d="M0 0 C5.30180097 -0.1232977 9.89685321 0.67696194 15 2 C14.67 2.66 14.34 3.32 14 4 C8.84828377 4.09038099 4.08086796 3.84681133 -1 3 C-0.67 2.01 -0.34 1.02 0 0 Z " fill="#5F4641" transform="translate(614,324)"/>
<path d="M0 0 C0.33 0 0.66 0 1 0 C1 7.26 1 14.52 1 22 C-1.05312708 18.92030937 -1.24997754 18.28031295 -1.23046875 14.8046875 C-1.22853516 14.00675781 -1.22660156 13.20882812 -1.22460938 12.38671875 C-1.20624023 11.14341797 -1.20624023 11.14341797 -1.1875 9.875 C-1.18685547 9.03839844 -1.18621094 8.20179688 -1.18554688 7.33984375 C-1.14033163 1.14033163 -1.14033163 1.14033163 0 0 Z " fill="#5E4743" transform="translate(409,591)"/>
<path d="M0 0 C0 0.66 0 1.32 0 2 C-7.92 2.495 -7.92 2.495 -16 3 C-16.33 2.34 -16.66 1.68 -17 1 C-11.33357449 -0.22517308 -5.76291482 -0.09228867 0 0 Z " fill="#1B1717" transform="translate(392,220)"/>
<path d="M0 0 C0.66 0.33 1.32 0.66 2 1 C1.0409375 2.1446875 1.0409375 2.1446875 0.0625 3.3125 C-2.14232781 5.88246713 -2.14232781 5.88246713 -3 9 C-3.99 9 -4.98 9 -6 9 C-5.67 6.69 -5.34 4.38 -5 2 C-4.360625 1.855625 -3.72125 1.71125 -3.0625 1.5625 C-1.02454854 1.18992819 -1.02454854 1.18992819 0 0 Z " fill="#25201E" transform="translate(357,222)"/>
<path d="M0 0 C0.33 0 0.66 0 1 0 C1 8.58 1 17.16 1 26 C0.67 26 0.34 26 0 26 C0 17.42 0 8.84 0 0 Z " fill="#584440" transform="translate(409,335)"/>
<path d="M0 0 C2 1 2 1 2.625 2.625 C3.12095645 5.7660575 3.06103811 8.82601831 3 12 C0.89366282 10.29171079 0.06198392 9.47851584 -0.29296875 6.73828125 C-0.25816406 5.93777344 -0.22335937 5.13726563 -0.1875 4.3125 C-0.16042969 3.50425781 -0.13335938 2.69601562 -0.10546875 1.86328125 C-0.07066406 1.24839844 -0.03585937 0.63351562 0 0 Z " fill="#141110" transform="translate(602,679)"/>
<path d="M0 0 C0.33 0 0.66 0 1 0 C1 5.94 1 11.88 1 18 C0.67 18 0.34 18 0 18 C-0.19384179 15.18780295 -0.38036603 12.37545804 -0.5625 9.5625 C-0.61857422 8.76005859 -0.67464844 7.95761719 -0.73242188 7.13085938 C-0.8616295 5.08937889 -0.9351273 3.04453631 -1 1 C-0.67 0.67 -0.34 0.34 0 0 Z " fill="#5E4843" transform="translate(409,495)"/>
<path d="M0 0 C-0.66 0.66 -1.32 1.32 -2 2 C-5.0390625 1.9765625 -5.0390625 1.9765625 -8.625 1.625 C-9.81351563 1.51414062 -11.00203125 1.40328125 -12.2265625 1.2890625 C-13.14179687 1.19367187 -14.05703125 1.09828125 -15 1 C-15 0.67 -15 0.34 -15 0 C-4.44191344 -1.33257403 -4.44191344 -1.33257403 0 0 Z " fill="#614742" transform="translate(605,806)"/>
<path d="M0 0 C0.33 0 0.66 0 1 0 C1 6.6 1 13.2 1 20 C0.67 20 0.34 20 0 20 C-1.33257403 6.3667426 -1.33257403 6.3667426 0 0 Z " fill="#5C4642" transform="translate(409,378)"/>
<path d="M0 0 C0.66 0.33 1.32 0.66 2 1 C-1.08290155 5.22797927 -1.08290155 5.22797927 -3 7 C-5.8125 7.375 -5.8125 7.375 -8 7 C-7.13375 6.38125 -7.13375 6.38125 -6.25 5.75 C-3.97483401 3.98042645 -2.00004601 2.07147622 0 0 Z " fill="#151312" transform="translate(662,796)"/>
<path d="M0 0 C2.31 1.98 4.62 3.96 7 6 C5.02 6.99 5.02 6.99 3 8 C0.37613513 4.93882432 0 4.26826873 0 0 Z " fill="#221B1A" transform="translate(605,689)"/>
<path d="M0 0 C0 0.99 0 1.98 0 3 C-3 5 -3 5 -7 5 C-7 4.34 -7 3.68 -7 3 C-4.69 2.01 -2.38 1.02 0 0 Z " fill="#13110F" transform="translate(660,319)"/>
<path d="M0 0 C0.33 0 0.66 0 1 0 C1 4.95 1 9.9 1 15 C-1.48570024 11.27144964 -1.30344304 8.30889122 -1 4 C-0.5 1.5 -0.5 1.5 0 0 Z " fill="#5E4642" transform="translate(409,655)"/>
<path d="M0 0 C1 3 1 3 -0.4375 6.1875 C-1.2109375 7.5796875 -1.2109375 7.5796875 -2 9 C-2.66 8.67 -3.32 8.34 -4 8 C-2.25 2.25 -2.25 2.25 0 0 Z " fill="#161111" transform="translate(607,327)"/>
<path d="M0 0 C3.63 0.33 7.26 0.66 11 1 C6.78370866 3.10814567 4.60209225 3.17700355 0 3 C0 2.01 0 1.02 0 0 Z " fill="#5E4642" transform="translate(639,325)"/>
<path d="M0 0 C0.33 0 0.66 0 1 0 C1 4.62 1 9.24 1 14 C0.67 14 0.34 14 0 14 C-0.77916092 8.97874074 -1.13016601 5.02296004 0 0 Z " fill="#5B4540" transform="translate(409,363)"/>
<path d="M0 0 C0.33 0 0.66 0 1 0 C1 2.97 1 5.94 1 9 C0.34 8.67 -0.32 8.34 -1 8 C-1.04241723 5.66705225 -1.04092937 3.33297433 -1 1 C-0.67 0.67 -0.34 0.34 0 0 Z " fill="#5C4541" transform="translate(409,679)"/>
<path d="M0 0 C0.66 0 1.32 0 2 0 C2 3.3 2 6.6 2 10 C1.67 10 1.34 10 1 10 C0.67 6.7 0.34 3.4 0 0 Z " fill="#5F4944" transform="translate(408,515)"/>
<path d="M0 0 C0.33 0 0.66 0 1 0 C1 2.31 1 4.62 1 7 C-0.0625 5.1875 -0.0625 5.1875 -1 3 C-0.67 2.01 -0.34 1.02 0 0 Z " fill="#5E4844" transform="translate(409,527)"/>
<path d="M0 0 C0.33 0 0.66 0 1 0 C1 2.31 1 4.62 1 7 C-0.0625 5.1875 -0.0625 5.1875 -1 3 C-0.67 2.01 -0.34 1.02 0 0 Z " fill="#5D4743" transform="translate(409,447)"/>
<path d="M0 0 C1.65 0 3.3 0 5 0 C5 0.66 5 1.32 5 2 C3.35 2 1.7 2 0 2 C0 1.34 0 0.68 0 0 Z " fill="#59433E" transform="translate(398,326)"/>
<path d="M0 0 C2.475 0.495 2.475 0.495 5 1 C4.67 1.66 4.34 2.32 4 3 C3.01 3 2.02 3 1 3 C0.67 2.01 0.34 1.02 0 0 Z " fill="#5B4944" transform="translate(360,325)"/>
<path d="M0 0 C2.31 0 4.62 0 7 0 C7 0.33 7 0.66 7 1 C4.69 1 2.38 1 0 1 C0 0.67 0 0.34 0 0 Z " fill="#604843" transform="translate(630,806)"/>
<path d="M0 0 C0.33 0 0.66 0 1 0 C1 2.31 1 4.62 1 7 C0.67 7 0.34 7 0 7 C0 4.69 0 2.38 0 0 Z " fill="#5E4843" transform="translate(409,455)"/>
<path d="M0 0 C1.65 0 3.3 0 5 0 C3.02 0.99 3.02 0.99 1 2 C0.67 1.34 0.34 0.68 0 0 Z " fill="#634743" transform="translate(432,806)"/>
<path d="M0 0 C1.32 0.33 2.64 0.66 4 1 C3.34 1 2.68 1 2 1 C1.67 1.66 1.34 2.32 1 3 C0.67 2.01 0.34 1.02 0 0 Z " fill="#5B4B46" transform="translate(359,805)"/>
<path d="M0 0 C0.99 0.495 0.99 0.495 2 1 C1.67 1.99 1.34 2.98 1 4 C0.67 2.68 0.34 1.36 0 0 Z " fill="#5D4742" transform="translate(408,433)"/>
<path d="M0 0 C1.65 0 3.3 0 5 0 C5 0.33 5 0.66 5 1 C3.35 1 1.7 1 0 1 C0 0.67 0 0.34 0 0 Z " fill="#5F4541" transform="translate(544,806)"/>
<path d="M0 0 C1.32 0.33 2.64 0.66 4 1 C2.68 1.33 1.36 1.66 0 2 C0 1.34 0 0.68 0 0 Z " fill="#614843" transform="translate(422,806)"/>
<path d="M0 0 C1.32 0.33 2.64 0.66 4 1 C2.68 1.33 1.36 1.66 0 2 C0 1.34 0 0.68 0 0 Z " fill="#5F4642" transform="translate(630,326)"/>
<path d="M0 0 C0.99 0 1.98 0 3 0 C2.67 0.66 2.34 1.32 2 2 C1.34 1.34 0.68 0.68 0 0 Z " fill="#604742" transform="translate(558,806)"/>
<path d="M0 0 C4 1 4 1 4 1 Z " fill="#614742" transform="translate(537,806)"/>
<path d="M0 0 C0.66 0 1.32 0 2 0 C1.67 0.99 1.34 1.98 1 3 C0.67 2.01 0.34 1.02 0 0 Z " fill="#5D4641" transform="translate(408,675)"/>
<path d="M0 0 C1 4 1 4 1 4 Z " fill="#5D4842" transform="translate(409,438)"/>
<path d="M0 0 C3 1 3 1 3 1 Z " fill="#614843" transform="translate(626,806)"/>
<path d="M0 0 C3 1 3 1 3 1 Z " fill="#604943" transform="translate(622,806)"/>
<path d="M0 0 C3 1 3 1 3 1 Z " fill="#604743" transform="translate(618,806)"/>
<path d="M0 0 C3 1 3 1 3 1 Z " fill="#604844" transform="translate(606,806)"/>
<path d="M0 0 C0.66 0 1.32 0 2 0 C1.67 0.66 1.34 1.32 1 2 C0.67 1.34 0.34 0.68 0 0 Z " fill="#614843" transform="translate(563,806)"/>
<path d="M0 0 C0.99 0.495 0.99 0.495 2 1 C1.01 1.495 1.01 1.495 0 2 C0 1.34 0 0.68 0 0 Z " fill="#604642" transform="translate(494,806)"/>
<path d="M0 0 C0.66 0.66 1.32 1.32 2 2 C1.34 2 0.68 2 0 2 C0 1.34 0 0.68 0 0 Z " fill="#624944" transform="translate(473,805)"/>
<path d="M0 0 C3 1 3 1 3 1 Z " fill="#624843" transform="translate(450,806)"/>
<path d="M0 0 C0.66 0 1.32 0 2 0 C1.67 0.66 1.34 1.32 1 2 C0.67 1.34 0.34 0.68 0 0 Z " fill="#554946" transform="translate(349,796)"/>
<path d="" fill="#564642" transform="translate(0,0)"/>
<path d="" fill="#5F4441" transform="translate(0,0)"/>
<path d="M0 0 C0.66 0.66 1.32 1.32 2 2 C1.34 2 0.68 2 0 2 C0 1.34 0 0.68 0 0 Z " fill="#5B4440" transform="translate(390,326)"/>
<path d="M0 0 C3 1 3 1 3 1 Z " fill="#5B4E49" transform="translate(360,219)"/>
<path d="M0 0 C2 1 2 1 2 1 Z " fill="#604743" transform="translate(611,806)"/>
<path d="M0 0 C2 1 2 1 2 1 Z " fill="#604641" transform="translate(555,806)"/>
<path d="M0 0 C2 1 2 1 2 1 Z " fill="#5F4741" transform="translate(550,806)"/>
<path d="M0 0 C2 1 2 1 2 1 Z " fill="#604742" transform="translate(531,806)"/>
<path d="M0 0 C2 1 2 1 2 1 Z " fill="#614642" transform="translate(523,806)"/>
<path d="M0 0 C2 1 2 1 2 1 Z " fill="#614842" transform="translate(515,806)"/>
<path d="M0 0 C2 1 2 1 2 1 Z " fill="#614742" transform="translate(507,806)"/>
<path d="M0 0 C2 1 2 1 2 1 Z " fill="#624744" transform="translate(499,806)"/>
<path d="M0 0 C2 1 2 1 2 1 Z " fill="#624745" transform="translate(483,806)"/>
<path d="M0 0 C2 1 2 1 2 1 Z " fill="#5F4742" transform="translate(459,806)"/>
<path d="M0 0 C2 1 2 1 2 1 Z " fill="#614843" transform="translate(443,806)"/>
<path d="M0 0 C2 1 2 1 2 1 Z " fill="#614844" transform="translate(427,806)"/>
<path d="M0 0 C2 1 2 1 2 1 Z " fill="#614943" transform="translate(411,806)"/>
<path d="M0 0 C2 1 2 1 2 1 Z " fill="#604844" transform="translate(387,806)"/>
<path d="" fill="#564944" transform="translate(0,0)"/>
<path d="" fill="#574743" transform="translate(0,0)"/>
<path d="" fill="#574643" transform="translate(0,0)"/>
<path d="" fill="#564542" transform="translate(0,0)"/>
<path d="" fill="#564742" transform="translate(0,0)"/>
<path d="" fill="#564842" transform="translate(0,0)"/>
<path d="" fill="#564743" transform="translate(0,0)"/>
<path d="M0 0 C2 1 2 1 2 1 Z " fill="#5E4A44" transform="translate(656,696)"/>
<path d="M0 0 C2 1 2 1 2 1 Z " fill="#594844" transform="translate(357,696)"/>
<path d="" fill="#59413E" transform="translate(0,0)"/>
<path d="M0 0 C2 1 2 1 2 1 Z " fill="#5C423F" transform="translate(611,327)"/>
<path d="M0 0 C2 1 2 1 2 1 Z " fill="#5E4743" transform="translate(651,326)"/>
<path d="M0 0 C2 1 2 1 2 1 Z " fill="#5A4B47" transform="translate(354,322)"/>
<path d="" fill="#594842" transform="translate(0,0)"/>
<path d="M0 0 C2 1 2 1 2 1 Z " fill="#66514C" transform="translate(486,218)"/>
<path d="" fill="#6D6C6B" transform="translate(0,0)"/>
<path d="" fill="#614443" transform="translate(0,0)"/>
<path d="" fill="#614843" transform="translate(0,0)"/>
<path d="" fill="#5B4743" transform="translate(0,0)"/>
<path d="" fill="#5B4942" transform="translate(0,0)"/>
<path d="" fill="#5F4A44" transform="translate(0,0)"/>
<path d="" fill="#5F4944" transform="translate(0,0)"/>
<path d="" fill="#604942" transform="translate(0,0)"/>
<path d="" fill="#604944" transform="translate(0,0)"/>
<path d="" fill="#624943" transform="translate(0,0)"/>
<path d="" fill="#5F4640" transform="translate(0,0)"/>
<path d="" fill="#624943" transform="translate(0,0)"/>
<path d="" fill="#624643" transform="translate(0,0)"/>
<path d="" fill="#614641" transform="translate(0,0)"/>
<path d="" fill="#5F4843" transform="translate(0,0)"/>
<path d="" fill="#614842" transform="translate(0,0)"/>
<path d="" fill="#614842" transform="translate(0,0)"/>
<path d="" fill="#624843" transform="translate(0,0)"/>
<path d="" fill="#604A40" transform="translate(0,0)"/>
<path d="" fill="#624843" transform="translate(0,0)"/>
<path d="" fill="#604843" transform="translate(0,0)"/>
<path d="" fill="#614742" transform="translate(0,0)"/>
<path d="" fill="#614642" transform="translate(0,0)"/>
<path d="" fill="#614945" transform="translate(0,0)"/>
<path d="" fill="#604842" transform="translate(0,0)"/>
<path d="" fill="#614844" transform="translate(0,0)"/>
<path d="" fill="#624643" transform="translate(0,0)"/>
<path d="" fill="#614742" transform="translate(0,0)"/>
<path d="" fill="#604942" transform="translate(0,0)"/>
<path d="" fill="#614943" transform="translate(0,0)"/>
<path d="" fill="#614C45" transform="translate(0,0)"/>
<path d="" fill="#5F4B45" transform="translate(0,0)"/>
<path d="" fill="#5D4C46" transform="translate(0,0)"/>
<path d="" fill="#5D4946" transform="translate(0,0)"/>
<path d="" fill="#5A4845" transform="translate(0,0)"/>
<path d="" fill="#554742" transform="translate(0,0)"/>
<path d="" fill="#584A46" transform="translate(0,0)"/>
<path d="" fill="#574946" transform="translate(0,0)"/>
<path d="" fill="#564947" transform="translate(0,0)"/>
<path d="" fill="#554944" transform="translate(0,0)"/>
<path d="" fill="#534541" transform="translate(0,0)"/>
<path d="" fill="#4F413D" transform="translate(0,0)"/>
<path d="" fill="#584C46" transform="translate(0,0)"/>
<path d="" fill="#554845" transform="translate(0,0)"/>
<path d="" fill="#554846" transform="translate(0,0)"/>
<path d="" fill="#564944" transform="translate(0,0)"/>
<path d="" fill="#564643" transform="translate(0,0)"/>
<path d="" fill="#564742" transform="translate(0,0)"/>
<path d="" fill="#574741" transform="translate(0,0)"/>
<path d="" fill="#584942" transform="translate(0,0)"/>
<path d="" fill="#574844" transform="translate(0,0)"/>
<path d="" fill="#584746" transform="translate(0,0)"/>
<path d="" fill="#584942" transform="translate(0,0)"/>
<path d="" fill="#5A4746" transform="translate(0,0)"/>
<path d="" fill="#584942" transform="translate(0,0)"/>
<path d="" fill="#574844" transform="translate(0,0)"/>
<path d="" fill="#564943" transform="translate(0,0)"/>
<path d="" fill="#574944" transform="translate(0,0)"/>
<path d="" fill="#584944" transform="translate(0,0)"/>
<path d="" fill="#584A46" transform="translate(0,0)"/>
<path d="" fill="#594B47" transform="translate(0,0)"/>
<path d="" fill="#564844" transform="translate(0,0)"/>
<path d="" fill="#594A45" transform="translate(0,0)"/>
<path d="" fill="#594A46" transform="translate(0,0)"/>
<path d="" fill="#584A46" transform="translate(0,0)"/>
<path d="" fill="#5A4A45" transform="translate(0,0)"/>
<path d="" fill="#594744" transform="translate(0,0)"/>
<path d="" fill="#5A4945" transform="translate(0,0)"/>
<path d="" fill="#5A4743" transform="translate(0,0)"/>
<path d="" fill="#584B46" transform="translate(0,0)"/>
<path d="" fill="#594844" transform="translate(0,0)"/>
<path d="" fill="#5B413E" transform="translate(0,0)"/>
<path d="" fill="#5D463F" transform="translate(0,0)"/>
<path d="" fill="#5E4641" transform="translate(0,0)"/>
<path d="" fill="#604946" transform="translate(0,0)"/>
<path d="" fill="#5D4A43" transform="translate(0,0)"/>
<path d="" fill="#614A45" transform="translate(0,0)"/>
<path d="" fill="#5F4943" transform="translate(0,0)"/>
<path d="" fill="#5F4845" transform="translate(0,0)"/>
<path d="" fill="#5D4542" transform="translate(0,0)"/>
<path d="" fill="#5A4541" transform="translate(0,0)"/>
<path d="" fill="#686462" transform="translate(0,0)"/>
<path d="" fill="#5E4541" transform="translate(0,0)"/>
<path d="" fill="#59423E" transform="translate(0,0)"/>
<path d="" fill="#5D4944" transform="translate(0,0)"/>
<path d="" fill="#5E4A46" transform="translate(0,0)"/>
<path d="" fill="#594B44" transform="translate(0,0)"/>
<path d="" fill="#5A4A45" transform="translate(0,0)"/>
<path d="" fill="#584B46" transform="translate(0,0)"/>
<path d="" fill="#564441" transform="translate(0,0)"/>
<path d="" fill="#5A4945" transform="translate(0,0)"/>
<path d="" fill="#584A45" transform="translate(0,0)"/>
<path d="" fill="#564844" transform="translate(0,0)"/>
<path d="" fill="#584944" transform="translate(0,0)"/>
<path d="" fill="#5B4A46" transform="translate(0,0)"/>
<path d="" fill="#5A4A43" transform="translate(0,0)"/>
<path d="" fill="#584642" transform="translate(0,0)"/>
<path d="" fill="#594945" transform="translate(0,0)"/>
<path d="" fill="#584743" transform="translate(0,0)"/>
<path d="" fill="#594646" transform="translate(0,0)"/>
<path d="" fill="#5A4844" transform="translate(0,0)"/>
<path d="" fill="#594742" transform="translate(0,0)"/>
<path d="" fill="#584844" transform="translate(0,0)"/>
<path d="" fill="#5A4B49" transform="translate(0,0)"/>
<path d="" fill="#5B4C4A" transform="translate(0,0)"/>
<path d="" fill="#5A4944" transform="translate(0,0)"/>
<path d="" fill="#604E4A" transform="translate(0,0)"/>
<path d="" fill="#634E4B" transform="translate(0,0)"/>
<path d="" fill="#634F4A" transform="translate(0,0)"/>
<path d="" fill="#66524C" transform="translate(0,0)"/>
<path d="" fill="#67514C" transform="translate(0,0)"/>
<path d="" fill="#674F4C" transform="translate(0,0)"/>
<path d="" fill="#68514D" transform="translate(0,0)"/>
<path d="" fill="#66504A" transform="translate(0,0)"/>
<path d="" fill="#68514D" transform="translate(0,0)"/>
<path d="" fill="#67514B" transform="translate(0,0)"/>
<path d="" fill="#64504B" transform="translate(0,0)"/>
<path d="" fill="#65514B" transform="translate(0,0)"/>
<path d="" fill="#66504B" transform="translate(0,0)"/>
<path d="" fill="#644F4C" transform="translate(0,0)"/>
<path d="" fill="#65504B" transform="translate(0,0)"/>
<path d="" fill="#62514C" transform="translate(0,0)"/>
<path d="" fill="#614E49" transform="translate(0,0)"/>
<path d="" fill="#66504B" transform="translate(0,0)"/>
<path d="" fill="#63504B" transform="translate(0,0)"/>
</svg>
